<?xml version="1.0" standalone="no"?>
<!DOCTYPE svg PUBLIC "-//W3C//DTD SVG 20010904//EN"
 "http://www.w3.org/TR/2001/REC-SVG-20010904/DTD/svg10.dtd">
<svg version="1.0" xmlns="http://www.w3.org/2000/svg"
 width="1024.000000pt" height="1536.000000pt" viewBox="0 0 1024.000000 1536.000000"
 preserveAspectRatio="xMidYMid meet">

<g transform="translate(0.000000,1536.000000) scale(0.100000,-0.100000)"
fill="currentColor" stroke="none">
<path d="M4940 10913 c-100 -8 -276 -45 -387 -82 -288 -95 -529 -246 -738
-463 -250 -259 -403 -553 -482 -925 -24 -116 -27 -148 -27 -348 -1 -231 7
-306 50 -478 80 -323 213 -562 484 -872 213 -243 325 -463 346 -683 9 -87 26
-130 59 -142 15 -6 135 -10 276 -10 l251 0 29 29 29 29 0 205 c0 283 17 355
103 438 61 59 124 77 295 89 184 13 224 18 289 41 89 30 181 106 232 190 43
73 52 125 61 364 10 288 15 305 120 424 42 47 83 97 93 111 24 35 22 91 -6
131 -13 19 -66 95 -119 169 -113 161 -172 261 -187 315 -5 22 -15 112 -21 200
-24 351 -91 605 -206 790 -20 33 -13 27 42 -30 86 -90 154 -187 211 -300 65
-128 90 -200 130 -370 57 -247 53 -238 249 -520 72 -104 138 -203 147 -220 26
-52 30 -109 13 -175 -20 -75 -37 -102 -137 -206 -43 -44 -80 -91 -83 -105 -3
-13 -7 -107 -10 -209 -6 -222 -22 -298 -96 -445 -83 -166 -206 -281 -346 -324
-35 -11 -128 -27 -206 -36 -175 -19 -235 -43 -285 -118 -43 -64 -56 -137 -51
-277 5 -124 17 -162 55 -179 32 -15 846 -15 874 -1 30 17 46 59 53 143 18 205
124 429 300 632 168 193 232 274 293 367 123 188 222 429 276 673 19 88 22
130 22 355 0 230 -2 266 -24 365 -80 379 -275 723 -552 979 -365 338 -904 520
-1419 479z"/>
<path d="M4290 6663 c-45 -23 -59 -37 -82 -82 -37 -71 -37 -129 0 -202 18 -35
42 -64 70 -84 l44 -30 765 -3 c495 -1 778 1 802 8 57 15 103 51 131 100 54 97
22 236 -67 292 l-38 23 -785 3 -785 2 -55 -27z"/>
<path d="M4558 6030 c-26 -27 -29 -35 -23 -68 11 -62 65 -142 160 -237 144
-144 257 -191 440 -182 114 5 179 26 271 86 139 90 263 242 272 332 4 41 1 51
-21 73 l-26 26 -521 0 -522 0 -30 -30z"/>
</g>
</svg>
